<svg width="600" height="500" viewBox="0 0 600 500" xmlns="http://www.w3.org/2000/svg" font-family="-apple-system, BlinkMacSystemFont, 'SF Pro Text', 'Segoe UI', Helvetica, Arial, sans-serif">
  <defs>
    <linearGradient id="bg" x1="0" y1="0" x2="1" y2="1">
      <stop offset="0" stop-color="#EEEBFF"/>
      <stop offset="1" stop-color="#F7F8FC"/>
    </linearGradient>
    <filter id="shadow" x="-20%" y="-20%" width="140%" height="140%">
      <feDropShadow dx="0" dy="10" stdDeviation="18" flood-color="#3A2E80" flood-opacity="0.22"/>
    </filter>
  </defs>

  <rect width="600" height="500" rx="20" fill="url(#bg)"/>

  <!-- menu bar strip -->
  <g transform="translate(40,34)">
    <rect x="0" y="0" width="520" height="40" rx="11" fill="#11121A" opacity="0.92"/>
    <g transform="translate(18,20)" fill="#F5F1EA">
      <path d="M2 -4 L13 -4 M9 -8 L13 -4 L9 0" fill="none" stroke="#F5F1EA" stroke-width="2.1" stroke-linecap="round" stroke-linejoin="round"/>
      <path d="M2 4 L13 4 M6 0 L2 4 L6 8" fill="none" stroke="#F5F1EA" stroke-width="2.1" stroke-linecap="round" stroke-linejoin="round"/>
    </g>
    <text x="42" y="25" fill="#F5F1EA" font-size="14" font-weight="600">13%</text>
    <g fill="#8A8A93" transform="translate(360,20)">
      <circle cx="0" cy="0" r="3"/><circle cx="22" cy="0" r="3"/><circle cx="44" cy="0" r="3"/>
      <text x="74" y="5" font-size="12.5" fill="#B9B9C2" font-weight="500">100%</text>
    </g>
  </g>

  <!-- dropdown menu -->
  <g transform="translate(150,86)" filter="url(#shadow)">
    <rect x="0" y="0" width="410" height="386" rx="14" fill="#26262B"/>
    <rect x="0.5" y="0.5" width="409" height="385" rx="13.5" fill="none" stroke="#3A3A41" stroke-width="1"/>

    <!-- Claude Code -->
    <text x="20" y="28" fill="#8E8E96" font-size="11.5" font-weight="600" letter-spacing="0.4">Claude Code</text>

    <g transform="translate(20,48)">
      <circle cx="7" cy="0" r="6.5" fill="none" stroke="#6E6E77" stroke-width="1.6"/>
      <text x="22" y="4.5" fill="#E9E9EE" font-size="13.5">p•••@g•••.com (max)</text>
      <text x="370" y="4.5" text-anchor="end" fill="#9A9AA2" font-size="12.5">5h 13% (2h 41m) · 7d 51%</text>
    </g>
    <g transform="translate(20,76)">
      <rect x="-12" y="-13" width="392" height="26" rx="6" fill="#5B8DEF" opacity="0.12"/>
      <circle cx="7" cy="0" r="7" fill="#5B8DEF"/>
      <path d="M3.6 0 L6 2.4 L10.6 -2.6" fill="none" stroke="#fff" stroke-width="1.7" stroke-linecap="round" stroke-linejoin="round"/>
      <text x="22" y="4.5" fill="#FFFFFF" font-size="13.5" font-weight="500">t•••@c•••.com (max)</text>
      <text x="370" y="4.5" text-anchor="end" fill="#B7B7BE" font-size="12.5">5h 13% (2h 41m) · 7d 51%</text>
    </g>
    <g transform="translate(20,104)">
      <path d="M2 0 a6 6 0 1 1 10 4" fill="none" stroke="#9A9AA2" stroke-width="1.5" stroke-linecap="round"/>
      <path d="M12 -2 l0 6 l5 0" fill="none" stroke="#9A9AA2" stroke-width="1.5" stroke-linecap="round" stroke-linejoin="round"/>
      <text x="24" y="4.5" fill="#C9C9D0" font-size="13">Auto-switch · Failover (switch before the limit)</text>
      <text x="370" y="4.5" fill="#6E6E77" font-size="13" text-anchor="end">›</text>
    </g>
    <g transform="translate(20,130)">
      <circle cx="7" cy="0" r="6.5" fill="none" stroke="#5B6CFF" stroke-width="1.6"/>
      <path d="M7 -3 L7 3 M4 0 L10 0" stroke="#5B6CFF" stroke-width="1.6" stroke-linecap="round"/>
      <text x="22" y="4.5" fill="#C9C9D0" font-size="13.5">Add account…</text>
    </g>

    <line x1="14" y1="152" x2="396" y2="152" stroke="#3A3A41" stroke-width="1"/>

    <!-- Codex CLI -->
    <text x="20" y="176" fill="#8E8E96" font-size="11.5" font-weight="600" letter-spacing="0.4">Codex CLI</text>
    <g transform="translate(20,196)">
      <rect x="-12" y="-13" width="392" height="26" rx="6" fill="#5B8DEF" opacity="0.12"/>
      <circle cx="7" cy="0" r="7" fill="#5B8DEF"/>
      <path d="M3.6 0 L6 2.4 L10.6 -2.6" fill="none" stroke="#fff" stroke-width="1.7" stroke-linecap="round" stroke-linejoin="round"/>
      <text x="22" y="4.5" fill="#FFFFFF" font-size="13.5" font-weight="500">t•••@c•••.com (pro)</text>
      <text x="370" y="4.5" text-anchor="end" fill="#B7B7BE" font-size="12.5">1h 10% · 7d 2%</text>
    </g>
    <g transform="translate(20,222)">
      <path d="M2 0 a6 6 0 1 1 10 4" fill="none" stroke="#9A9AA2" stroke-width="1.5" stroke-linecap="round"/>
      <path d="M12 -2 l0 6 l5 0" fill="none" stroke="#9A9AA2" stroke-width="1.5" stroke-linecap="round" stroke-linejoin="round"/>
      <text x="24" y="4.5" fill="#C9C9D0" font-size="13">Auto-switch · Off</text>
    </g>

    <line x1="14" y1="244" x2="396" y2="244" stroke="#3A3A41" stroke-width="1"/>

    <g transform="translate(20,268)" fill="#C9C9D0" font-size="13.5">
      <circle cx="7" cy="-4" r="7.5" fill="none" stroke="#9A9AA2" stroke-width="1.4"/>
      <path d="M3 -4 a4 4 0 1 1 1.4 3" fill="none" stroke="#9A9AA2" stroke-width="1.4" stroke-linecap="round"/>
      <text x="24" y="0">Refresh usage</text>
    </g>
    <g transform="translate(20,294)" fill="#C9C9D0" font-size="13.5">
      <circle cx="7" cy="-4" r="7.5" fill="none" stroke="#9A9AA2" stroke-width="1.4"/>
      <path d="M4 -4 L10 -4" stroke="#9A9AA2" stroke-width="1.5" stroke-linecap="round"/>
      <text x="24" y="0">Remove account</text>
      <text x="370" y="0" fill="#6E6E77" text-anchor="end">›</text>
    </g>
    <g transform="translate(20,320)" fill="#C9C9D0" font-size="13.5">
      <circle cx="7" cy="-4" r="7.5" fill="none" stroke="#9A9AA2" stroke-width="1.4"/>
      <circle cx="7" cy="-4" r="3" fill="none" stroke="#9A9AA2" stroke-width="1.3"/>
      <text x="24" y="0">Settings</text>
      <text x="370" y="0" fill="#6E6E77" text-anchor="end">›</text>
    </g>

    <line x1="14" y1="342" x2="396" y2="342" stroke="#3A3A41" stroke-width="1"/>
    <g transform="translate(20,366)" fill="#C9C9D0" font-size="13.5">
      <path d="M7 -9 L7 -3 M2.5 -7.5 a6 6 0 1 0 9 0" fill="none" stroke="#9A9AA2" stroke-width="1.5" stroke-linecap="round"/>
      <text x="24" y="0">Quit CleverSwitch</text>
    </g>
  </g>
</svg>
